<?xml version="1.0" encoding="UTF-8" standalone="no"?>
<!DOCTYPE svg PUBLIC "-//W3C//DTD SVG 1.1//EN" "http://www.w3.org/Graphics/SVG/1.1/DTD/svg11.dtd">
<svg width="100%" height="100%" viewBox="0 0 2910 991" version="1.1" xmlns="http://www.w3.org/2000/svg" xmlns:xlink="http://www.w3.org/1999/xlink" xml:space="preserve" xmlns:serif="http://www.serif.com/" style="fill-rule:evenodd;clip-rule:evenodd;stroke-linejoin:round;stroke-miterlimit:2;">
    <g transform="matrix(1,0,0,1,-8426.827659,-552.871336)">
        <g transform="matrix(1.90717,0,0,1,-6474.827913,0)">
            <g transform="matrix(1,0,0,1,38.310273,512.755607)">
                <g>
                    <g transform="matrix(0.861851,0,0,1.643697,8006.626817,508.654591)">
                        <path d="M0,-44.179C-11.835,-53.487 -21.129,-64.812 -29.705,-76.861C-35.719,-85.313 -42.148,-92.285 -52.503,-95.344C-54.127,-91.03 -55.477,-86.889 -56.708,-82.528C-60.382,-69.522 -65.12,-57.603 -70.1,-45.059C-74.512,-33.945 -76.271,-21.824 -72.896,-10.364C-67.242,8.837 -38.175,32.811 -63.63,45.676L-121.232,74.789C-122.783,75.573 -124.554,78.281 -124.48,79.655C-124.406,81.029 -122.267,83.547 -120.743,83.873C-104.867,87.271 -93.921,74.572 -78.71,76.803C-75.964,77.206 -72.529,79.557 -71.358,81.378C-66.148,89.477 -80.633,108.648 -86.198,115.838L-106.718,142.353C-119.456,158.814 -131.871,174.781 -146.772,189.334C-152.23,194.664 -157.597,200.014 -164.98,202.871C-166.862,202.334 -167.126,197.985 -166.306,196.242L-154.705,171.602C-149.295,160.11 -144.243,148.733 -140.898,136.463C-138.628,128.137 -140.009,119.285 -145.168,112.554C-149.32,111.382 -154.941,112.951 -157.839,116.208L-154.006,124.396C-150.696,131.226 -155.182,160.129 -162.367,159.489C-163.728,159.368 -165.499,156.747 -165.782,155.201L-170.251,130.728C-172.716,131.126 -174.909,131.851 -175.898,132.964C-180.023,137.607 -174.919,140.767 -176.877,156.975C-177.382,161.151 -179.173,176.878 -185.791,175.87C-187.904,175.548 -189.796,170.583 -189.823,168.417L-190.038,151.106C-190.064,148.946 -191.437,145.166 -193.261,144.124C-195.426,144.097 -199.6,147.896 -199.646,150.219L-200.2,178.253C-200.238,180.183 -205.506,196.722 -210.702,193.436C-213.696,191.542 -215.285,186.837 -215.332,183.462L-215.588,164.762C-221.748,163.563 -229.101,173.267 -235.459,175.864C-240.314,173.628 -239.787,168.884 -239.209,165.41C-237.398,154.53 -231.257,147.466 -224.152,139.935C-216.624,131.956 -213.791,120.147 -210.412,110.17C-208.176,103.568 -204.428,101.05 -197.791,100.739L-165.924,99.246C-161.613,99.044 -157.448,97.113 -156.554,93.023C-153.129,77.354 -148.858,68.865 -134.15,60.229C-141.865,58.94 -149.169,56.781 -155.94,57.182C-172.38,58.154 -186.941,62.53 -200.89,70.374C-213.76,77.611 -225.727,85.066 -238.032,93.144C-247.235,99.184 -256.015,105.117 -266.021,110.185C-268.981,110.19 -269.047,104.881 -267.718,102.634C-253.705,78.935 -233.524,55.389 -212.7,37.447C-201.971,28.203 -190.711,21.018 -177.743,15.22L-150.893,3.215C-142.018,-0.753 -135.664,-7.222 -131.005,-15.734C-124.153,-28.248 -118.413,-40.795 -112.154,-53.732C-103.656,-71.294 -90.044,-98.084 -72.622,-107.356C-55.014,-116.726 -38.97,-108.028 -27.859,-93.553C-21.237,-84.926 -14.369,-77.478 -6.301,-70.21C-1.631,-66.002 7.687,-54.715 9.881,-54.538C15.55,-54.08 22.74,-70.035 49.17,-69.93C55.05,-69.907 61.069,-69.318 67.062,-70.312C81.477,-72.704 96.391,-96.595 102.385,-109.281L121.937,-150.66C133.592,-175.324 150.389,-201.85 169.571,-221.104C177.335,-228.897 185.773,-234.877 195.682,-239.337C214.519,-247.818 236.344,-241.341 247.224,-223.707C252.094,-215.815 255.934,-207.733 259.893,-199.385C270.52,-176.977 286.169,-173.949 292.266,-166.916C300.048,-157.938 303.473,-143.622 311.678,-138.373L329.983,-126.662C348.628,-114.733 366.834,-103.489 384.749,-90.185C408.265,-72.72 428.927,-52.775 448.039,-30.609C492.972,21.507 492.137,56.21 526.963,97.368C532.147,103.495 536.616,109.288 539.874,116.656C545.775,130.004 552.712,142.138 559.488,155.102C567.411,170.261 567.398,187.064 575.817,200.983C576.521,202.239 572.312,203.639 570.846,202.806L540.236,185.414C532.285,180.896 524.721,176.596 517.083,171.299L443.327,120.147C428.292,109.72 413.563,100.951 396.77,93.678C381.056,86.873 365.693,80.634 349.481,75.038C336.056,70.403 324.553,63.702 313.217,55.355L294.791,41.79C287.292,36.269 279.363,33.496 270.357,31.914L251.713,28.639C250.192,28.372 247.724,26.718 247.3,25.354C246.767,23.642 247.417,21.269 247.989,19.331L263.932,-34.637C270.156,-55.706 275.412,-76.19 279.727,-97.729C280.899,-103.582 281.167,-109.678 281.132,-115.737L280.958,-146.509C280.923,-152.627 287.898,-142.437 288.708,-138.142L293.162,-114.545C294.415,-107.909 294.713,-101.446 295.444,-94.677L297.383,-76.705L299.331,-59.616L303.92,-9.883C304.757,-0.806 306.482,8.261 308.548,17.047C312.388,33.38 322.896,46.226 338.142,53.01C342.219,54.824 359.014,61.15 362.064,59.816C365.432,58.342 360.322,41.272 357.883,36.311C345.352,10.822 328.072,-9.857 325.487,-38.915C323.823,-57.623 324.248,-75.804 323.972,-94.652C323.764,-108.859 318.547,-122.645 304.225,-127.585C291.503,-131.973 300.541,-142.985 284.261,-155.843C273.694,-164.19 263.286,-172.976 255.744,-184.295C247.288,-196.985 243.999,-214.554 226.279,-228.81C224.417,-230.308 220.76,-231.265 218.954,-230.036C204.61,-220.278 214.223,-185.621 210.981,-161.75C209.926,-153.978 204.878,-146.543 200.713,-140.169C183.854,-114.365 179.422,-93.406 173.198,-63.498C170.611,-51.067 169.329,-35.587 169.006,-22.563C168.758,-12.556 167.992,0.162 155.951,-0.627C138.576,-1.764 128.557,-22.902 118.942,-37.647C113.898,-45.382 93.172,-71.272 82.876,-64.473C78.454,-61.554 75.411,-54.962 74.32,-49.595L66.736,-12.283C65.779,-7.576 63.457,-1.012 58.244,-0.266C51.253,0.733 46.451,-22.189 45.309,-27.878C44.266,-33.07 42.178,-52.598 33.572,-48.418L19.153,-41.415C12.677,-38.271 6.07,-39.405 0,-44.179" style="fill:rgb(1,72,89);"/>
                    </g>
                    <g transform="matrix(0.861851,0,0,1.643697,7934.276231,754.289801)">
                        <path d="M0,8.484C7.028,6.819 14.891,9.408 22.079,8.478C25.891,7.985 30.327,9.703 34.012,9.71L58.161,9.749C61.397,9.754 74.748,8.252 73.079,1.789C64.974,2.108 18.202,3.26 15.815,-0.661C15.463,-1.239 15.922,-3.312 16.337,-3.903L25.002,-16.283C44.03,-15.474 61.435,-15.142 79.986,-15.594C84.906,-15.714 89.543,-17.363 92.077,-22.094C88.999,-23.557 85.374,-24.667 82.029,-24.683L41.988,-24.884C40.11,-24.893 36.496,-26.19 35.063,-27.291C34.53,-33.895 40.8,-38.038 47.036,-38.164L75.703,-38.745L103.11,-39.537C106.38,-39.631 109.071,-43.89 110.367,-47.685L94.979,-49.173L82.506,-50.101C82.022,-49.899 82.559,-53.801 83.371,-54.768L95.671,-69.401C99.776,-74.285 103.034,-78.125 108.097,-82.977L121.641,-68.571C126.843,-63.039 131.618,-57.353 136.58,-51.026L54.233,80.786C53.072,82.644 50.091,85.567 48.286,86.013C42.092,87.544 35.465,89.795 29.092,89.97C7.368,90.566 -13.915,91.461 -35.036,89.106L-60.816,86.233C-61.866,86.116 -63.691,84.952 -64.099,84.203C-64.507,83.455 -64.025,81.081 -63.477,80.404L-40.674,52.252C-37.659,48.531 -34.717,43.205 -30.235,41.507C-17.28,36.597 2.541,36.305 15.734,38.103C19.637,38.635 21.373,38.924 25.376,38.119C38.071,35.564 40.06,41.164 48.758,37.625C51.597,36.47 54.398,34.932 53.515,31.103L18.022,31.238C11.868,31.262 -11.788,31.804 -14.446,28.636C-17.603,24.872 -6.237,9.962 0,8.484" style="fill:rgb(1,72,89);"/>
                    </g>
                    <g transform="matrix(0.861851,0,0,1.643697,8043.209636,743.652123)">
                        <path d="M0,54.662C-1.728,54.589 -4.483,53.728 -5.198,52.795C-9.566,47.097 6.285,23.42 11.051,17.207L35.721,16.921L47.003,33.014C48.01,28.737 49.054,24.486 48.829,20.159C48.537,14.552 44.295,6.711 38.837,4.552C33.02,2.252 14.588,6.726 17.776,-3.691C20.124,-11.366 35.747,-8.994 42.711,-9.011L53.747,-3.029C54.867,-7.803 56.601,-13.901 54.58,-17.839C50.692,-25.418 41.402,-27.152 33.873,-25.939C31.885,-25.619 28.592,-27.107 27.954,-28.532C27.316,-29.956 28.344,-33.526 29.794,-34.491C37.29,-39.485 50.174,-37.968 58.632,-34.794C60.023,-39.5 60.832,-45.463 59.337,-49.987L36.83,-50.253C35.863,-50.265 34.006,-51.682 33.727,-52.432C33.449,-53.181 33.645,-55.457 34.335,-56.341L49.579,-75.882C51.27,-78.051 58.591,-77.492 60.522,-75.577C66.292,-69.853 72.142,-63.152 76.955,-56.699L75.027,-39.108L71.006,-11.427L66.692,21.144L60.058,64.576L54.036,101.477C52.6,110.279 51.069,118.502 48.373,127.098C47.375,130.282 43.777,131.307 40.722,131.575C27.744,132.713 15.594,132.627 2.702,131.946C-10.271,131.261 -22.419,131 -35.298,127.006C-35.381,115.644 -34.59,104.253 -29.503,94.126C-25.255,85.668 -17.519,79.311 -11.508,72.351C-7.092,67.237 -2.887,66.539 3.832,66.135C10.088,65.758 18.332,62.806 23.411,68.608C28.601,74.535 30.588,82.155 35.421,89.774L38.245,74.978C39.493,68.434 41.327,62.38 40.635,55.762L19.625,55.497L0,54.662Z" style="fill:rgb(1,72,89);"/>
                    </g>
                    <g transform="matrix(0.861851,0,0,1.643697,8187.774722,804.084775)">
                        <path d="M0,-21.325C3.96,-21.289 24.937,8.889 23.836,13.833C23.581,14.976 20.618,16.333 19.351,16.35L-23.898,16.915C-22.368,22.936 -20.664,28.563 -18.73,34.28L-14.698,46.194C-11.135,56.724 -8.313,30.557 -1.934,26.826L19.167,26.901C22.342,26.912 24.997,28.65 27.245,31.343C39.843,46.437 51.225,62.15 62.038,78.675C62.691,79.673 62.815,82.594 62.492,83.68C60.415,90.648 19.138,94.598 10.891,94.945L-14.297,96.003C-16.623,96.1 -20.038,93.475 -20.826,91.372C-24.382,81.88 -27.511,73.192 -30.353,63.633L-43.427,19.65L-74.372,-91.348C-75.646,-95.921 -74.282,-99.533 -71.606,-102.802L-63.39,-112.839C-61.969,-114.576 -59.203,-116.737 -57.03,-117.095C-55.023,-117.425 -50.998,-116.048 -49.437,-114.287L-29.708,-92.028C-33.018,-88.302 -49.916,-91.149 -58.067,-89.429C-57.911,-83.916 -56.61,-79.715 -54.407,-75.241C-45.739,-76.657 -38.607,-77.484 -30.211,-76.395C-26.942,-75.971 -21.216,-72.229 -22.367,-69.061C-25.553,-60.294 -45.937,-71.301 -47.792,-56.256C-48.351,-51.722 -46.769,-47.107 -44.992,-42.557C-42.407,-43.53 -40.201,-44.401 -38.211,-45.662C-29.411,-51.243 -18.934,-51.571 -10.414,-45.131C-8.75,-43.873 -6.811,-38.724 -9.165,-37.554C-16.593,-33.866 -26.705,-39.723 -32.096,-32.269C-39.88,-21.503 -38.248,-17.98 -32.267,-7.306C-29.108,-12.515 -26.67,-17.531 -22.937,-21.535L0,-21.325Z" style="fill:rgb(1,72,89);"/>
                    </g>
                    <g transform="matrix(0.861851,0,0,1.643697,8317.800812,583.32626)">
                        <path d="M0,54.769C7.689,60.871 17.236,65.035 13.028,70.231C-20.306,71.406 -36.583,73.154 -67.917,60.989C-85.327,54.23 -89.576,43.299 -107.439,34.632C-115.489,30.726 -124.442,30.287 -133.156,29.16C-139.321,28.362 -144.553,24.621 -150.373,22.447C-168.314,15.745 -181.503,20.107 -188.755,8.543C-194.104,0.013 -200.493,-7.017 -210.453,-9.558C-212.309,-10.032 -215.15,-14.423 -213.312,-15.143C-205.032,-18.385 -196.78,-15.306 -188.792,-13.797C-183.344,-12.767 -179.817,-11.364 -177.538,-6.109L-173.057,4.223C-166.969,4.555 -161.037,4.919 -154.966,4.275C-150.032,3.752 -145.19,2.209 -139.989,3.285C-114.506,8.556 -113.501,18.386 -65.128,24.228C-47.542,26.351 -30.431,32.737 -15.981,42.74C-10.305,46.67 -5.281,50.578 0,54.769" style="fill:rgb(1,72,89);"/>
                    </g>
                    <g transform="matrix(0.861851,0,0,1.643697,8352.376466,839.819896)">
                        <path d="M0,59.179C-15.302,61.331 -29.714,62.543 -44.992,62.177C-51.109,59.191 -55.621,54.682 -57.11,47.639C-52.388,44.777 -46.666,45.908 -34.899,43.929C-2.653,38.505 28.707,31.911 59.701,21.593C75.295,16.402 89.285,10.211 103.596,2.309C113.871,-3.364 125.279,11.536 127.976,21.02C128.788,23.875 126.666,26.312 124.354,27.487C86.81,46.574 41.708,53.314 0,59.179" style="fill:rgb(1,72,89);"/>
                    </g>
                    <g transform="matrix(0.861851,0,0,1.643697,8329.932313,791.888051)">
                        <path d="M0,53.497C-8.306,54.969 -42.932,59.505 -48.833,58.693C-55.577,57.764 -60.552,51.926 -61.953,45.46C-55.166,43.567 -49.353,42.305 -42.979,41.128C-9.985,35.036 50.021,17.533 77.633,-1.409C80.622,-3.459 85.451,-6.008 88.87,-4.409C97.209,-0.51 103.154,6.912 104.813,15.756C93.434,30.27 54.597,42.275 36.968,46.128L17.192,50.451L0,53.497Z" style="fill:rgb(1,72,89);"/>
                    </g>
                    <g transform="matrix(0.861851,0,0,1.643697,8271.016348,744.287905)">
                        <path d="M0,61.011C-7.602,62.314 -13.031,59.956 -15.291,52.363C-10.383,49.626 -5.342,47.986 0.142,46.39C31.344,37.315 70.739,20.974 98.135,3.703C101.193,1.775 104.404,-1.303 108.261,-0.466C116.739,1.374 125.838,11.254 124.659,15.258C123.365,19.649 105.243,28.214 99.888,30.632C68.132,44.975 34.915,55.026 0,61.011" style="fill:rgb(1,72,89);"/>
                    </g>
                    <g transform="matrix(-0.848398,-0.289283,-0.151682,1.61804,8221.064384,288.594565)">
                        <path d="M-15.801,-19.455C-20.048,-10.871 -32.488,27.111 -24.681,37.032C-20.493,34.432 -18.078,30.329 -15.801,25.682C-5.28,4.216 3.537,-17.397 11.617,-39.958C16.439,-53.426 -7.69,-35.848 -15.801,-19.455" style="fill:rgb(1,72,89);"/>
                    </g>
                    <g transform="matrix(0.861851,0,0,1.643697,8237.424238,681.630345)">
                        <path d="M0,10.169C1.208,11.188 2.091,15.094 1.494,16.411C-0.207,20.162 -20.372,23.522 -28.959,17.388C-33.688,14.011 -52.631,-2.744 -51.314,-8.047C-50.961,-9.47 -48.232,-11.857 -46.594,-11.938C-36.703,-12.427 -27.88,-13.353 -19.573,-6.345L0,10.169Z" style="fill:rgb(1,72,89);"/>
                    </g>
                    <g transform="matrix(0.861851,0,0,1.643697,8308.958737,728.98706)">
                        <path d="M0,22.765C-13.865,27.554 -25.033,30.08 -35.667,19.406L-51.291,3.722C-52.329,2.68 -53.188,-0.722 -52.615,-2.112C-51.998,-3.607 -48.617,-4.182 -46.735,-4.638C-35.69,-7.315 -26.411,-4.633 -17.735,2.237L0.233,16.464C1.515,17.48 1.663,22.191 0,22.765" style="fill:rgb(1,72,89);"/>
                    </g>
                    <g transform="matrix(0.861851,0,0,1.643697,8264.762756,728.636952)">
                        <path d="M0,32.37C-12.093,36.173 -22.634,32.576 -30.32,23.147C-34.645,17.84 -41.777,13.283 -44.776,7.048C-48.252,-0.178 -24.481,-3.803 -11.499,7.53L6.159,22.944C7.497,24.111 9.213,28.439 7.969,29.661C6.15,31.449 2.489,31.587 0,32.37" style="fill:rgb(1,72,89);"/>
                    </g>
                </g>
                <g transform="matrix(1,0,0,1,767.597966,-956.44841)">
                    <g transform="matrix(0.861851,0,0,1.643697,8324.768447,1206.515023)">
                        <path d="M0,35.005L-0.254,-83.957C9.716,-84.731 19.645,-84.875 29.687,-83.9C46.656,-82.253 45.194,-63.085 45.23,-50.48L45.35,-8.102L0,35.005ZM61.989,30.235L78.77,13.618C84.21,8.232 85.803,1.278 85.729,-6.276L85.118,-68.282C83.629,-97.91 62.304,-124.149 31.827,-124.296L-40.341,-124.642L-40.332,124.642L-40.306,159.476L-0.313,159.647L-0.18,89.812C4.374,84.866 8.775,80.664 13.463,76.265L28.49,62.166L56.077,159.563L96.299,159.394L61.989,30.235Z" style="fill:rgb(174,72,4);"/>
                    </g>
                    <g transform="matrix(-0.606112,1.168545,0.612711,1.155959,8260.525113,1478.777415)">
                        <path d="M-20.438,-38.17L45.253,-38.17L22.338,-15.058L-49.759,-8.531L-20.438,-38.17Z" style="fill:rgb(133,5,5);"/>
                    </g>
                    <g transform="matrix(0.861851,0,0,1.643697,8103.346414,1884.306739)">
                        <path d="M0,-161.251C-0.527,-167.368 -1.934,-172.204 -4.903,-176.777C-8.247,-180.067 -12.33,-182.43 -17.198,-182.416L-45.771,-182.334L-45.315,-63.294L-0.001,-105.803L0,-161.251ZM16.415,-67.91L50.887,61.543L10.929,61.361L-16.671,-36.016L-45.648,-8.73L-45.917,61.529L-85.843,61.365L-85.806,-222.794L-17.575,-222.223C-4.871,-222.117 6.68,-218.986 17.048,-211.581C30.772,-200.426 39.269,-184.425 39.496,-166.33L40.29,-102.778C40.385,-95.215 38.556,-89.499 33.192,-84.269L16.415,-67.91Z" style="fill:rgb(133,5,5);"/>
                    </g>
                    <g transform="matrix(0.861851,0,0,1.643697,8283.782516,1987.789126)">
                        <path d="M0,-286.947L0.202,-135.748C0.238,-108.165 0.555,-82.041 -0.905,-54.659C-2.146,-31.371 -23.026,-0.642 -51.518,-0.438L-79.543,-0.238C-112.7,0 -133.083,-31.774 -133.094,-63.746L-133.172,-286.919L-93.673,-286.683L-93.697,-66.859C-93.698,-57.988 -91.551,-49.928 -84.974,-44.234C-78.52,-38.648 -57.547,-39.956 -51.463,-42.647C-43.117,-46.338 -40.359,-55.265 -39.763,-64.053L-39.756,-286.814L0,-286.947Z" style="fill:rgb(133,5,5);"/>
                    </g>
                    <g transform="matrix(0.861851,0,0,1.643697,8194.194909,1066.036964)">
                        <path d="M0,205.34C7.088,206.07 14.195,206.239 21.354,204.806C30.086,203.059 36.166,194.496 36.165,184.97L36.141,18.44C36.14,10.478 30.948,2.129 23.742,0.441C15.455,-1.501 6.941,-1.212 -1.311,-0.422C-13.124,0.708 -17.109,13.721 -17.116,24.309L-17.217,179.046C-17.224,190.84 -12.774,204.025 0,205.34M41.929,218.142C34.605,224.585 28.05,230.503 21.324,237.135C9.857,248.441 10.309,245.575 -0.561,245.958C-13.653,246.42 -26.503,242.897 -35.912,233.651C-49.823,219.983 -56.697,201.743 -56.68,182.066L-56.546,19.27C-56.531,1.441 -48.898,-14.934 -36.609,-26.59C-22.731,-39.753 -5.703,-41.689 12.487,-42.233C41.489,-43.101 66.728,-26.916 73.9,2.293C75.902,10.446 76.529,19.185 76.534,28.306L76.609,174.024C76.615,184.321 75.676,193.762 74.1,203.234L59.436,202.908C53.098,207.45 48,212.8 41.929,218.142" style="fill:rgb(174,72,4);"/>
                    </g>
                    <g transform="matrix(0.861851,0,0,1.643697,7761.988844,1001.445101)">
                        <path d="M0,284.419L10.813,249.36L45.065,142.193L-0.472,0.231L40.254,-0.063L75.009,107.098L109.475,0.267L150.114,-0.148L104.723,141.87L150.024,283.924L110.652,284.567L92.238,230.917L74.949,179.894L39.337,284.097L0,284.419Z" style="fill:rgb(174,72,4);"/>
                    </g>
                    <g transform="matrix(0.861851,0,0,1.643697,7985.10338,1365.642796)">
                        <path d="M0,-158.691C-0.812,-165.7 -2.586,-171.432 -6.311,-176.74C-10.603,-179.408 -15.665,-181.316 -20.833,-181.292L-46.007,-181.174L-45.815,-61.653L-0.006,-105.398L0,-158.691ZM40.104,-100.52C40.15,-93.865 38.068,-87.908 33.497,-83.492L-45.911,-6.788L-45.966,62.71L-85.692,62.563L-85.678,-221.401L-16.949,-221.292C2.536,-221.262 19.695,-212.019 30.079,-195.928C36.53,-184.902 39.602,-173.015 39.692,-160.009L40.104,-100.52Z" style="fill:rgb(174,72,4);"/>
                    </g>
                    <g transform="matrix(0.861851,0,0,1.643697,7845.731895,1880.70244)">
                        <path d="M0,-157.023C-0.179,-162.544 -1.172,-167.123 -3.064,-171.611C-6.128,-176.317 -10.654,-180.043 -16.619,-180.052L-45.987,-180.096L-45.533,-61.222L-0.029,-104.157L0,-157.023ZM39.949,-98.924C39.955,-93.5 38.725,-87.706 35.053,-84.167L-45.978,-6.075L-46.103,63.496L-85.418,63.436L-85.428,-220.519L-16.496,-220.09C7.59,-219.94 27.801,-205.789 35.575,-183.061C38.867,-174.219 39.878,-165.059 39.888,-155.478L39.949,-98.924Z" style="fill:rgb(133,5,5);"/>
                    </g>
                    <g transform="matrix(0.861851,0,0,1.643697,7944.404877,1616.236382)">
                        <path d="M0,164.941C-0.031,174.523 4.251,182.008 13.481,184.68L63.208,184.477L63.167,224.432L11.45,224.113C-3.478,224.021 -16.358,216.398 -25.795,205.561C-35.713,194.172 -39.769,181.394 -39.763,166.234L-39.695,-2.488C-39.682,-33.2 -17.111,-59.171 14.316,-59.296L63.234,-59.491L63.187,-19.589L15.384,-19.262C6.762,-19.176 0.082,-12.486 0.086,-3.551L0.116,63.556L63.168,63.61L63.149,103.717L0.196,103.939L0,164.941Z" style="fill:rgb(133,5,5);"/>
                    </g>
                    <g transform="matrix(0.861851,0,0,1.643697,8463.967303,1201.150654)">
                        <path d="M0,42.008C-0.539,64.544 -0.649,86.273 0.024,108.7C0.266,116.764 7.483,121.636 14.753,122.524L63.035,122.874L62.984,162.838L17.531,163.122C-15.186,163.325 -40.378,138.594 -40.374,105.96L-40.355,-63.985C-40.352,-93.207 -19.947,-118.089 9.339,-121.317L62.686,-121.215L63.049,-81.196L14.368,-81.184C6.57,-80.752 -0.206,-74.988 -0.197,-66.719L-0.118,1.699L62.723,1.928L63.137,41.89L0,42.008Z" style="fill:rgb(174,72,4);"/>
                    </g>
                    <g transform="matrix(0.861851,0,0,1.643697,8128.643811,1001.748528)">
                        <path d="M0,283.795L-91.822,283.92L-91.617,-0.111L-52.308,-0.125L-52.193,243.647L-0.063,244.238L0,283.795Z" style="fill:rgb(174,72,4);"/>
                    </g>
                    <g transform="matrix(0.861851,0,0,1.643697,8325.124391,1689.583889)">
                        <path d="M0,9.652L-5.175,-4.804L-10.35,9.652L0,9.652ZM1.067,12.691L-11.417,12.691L-13.717,19.056L-17.659,19.056L-7.311,-9.404L-2.998,-9.404L7.31,19.056L3.367,19.056L1.067,12.691Z" style="fill-rule:nonzero;"/>
                    </g>
                    <g transform="matrix(0.861851,0,0,1.643697,8361.473649,1707.135448)">
                        <path d="M0,-11.95C-0.795,-13.62 -1.944,-14.913 -3.45,-15.831C-4.956,-16.748 -6.708,-17.207 -8.707,-17.207C-10.705,-17.207 -12.505,-16.748 -14.106,-15.831C-15.709,-14.913 -16.968,-13.599 -17.885,-11.888C-18.803,-10.178 -19.261,-8.199 -19.261,-5.954C-19.261,-3.709 -18.803,-1.738 -17.885,-0.041C-16.968,1.657 -15.709,2.964 -14.106,3.881C-12.505,4.799 -10.705,5.257 -8.707,5.257C-5.914,5.257 -3.614,4.422 -1.808,2.752C0,1.082 1.054,-1.177 1.354,-4.024L-10.062,-4.024L-10.062,-7.063L5.339,-7.063L5.339,-4.188C5.119,-1.834 4.38,0.322 3.121,2.279C1.861,4.237 0.205,5.784 -1.849,6.92C-3.901,8.057 -6.187,8.624 -8.707,8.624C-11.362,8.624 -13.785,8.002 -15.976,6.756C-18.166,5.511 -19.897,3.779 -21.171,1.561C-22.443,-0.657 -23.08,-3.162 -23.08,-5.954C-23.08,-8.747 -22.443,-11.259 -21.171,-13.49C-19.897,-15.721 -18.166,-17.46 -15.976,-18.706C-13.785,-19.951 -11.362,-20.574 -8.707,-20.574C-5.668,-20.574 -2.978,-19.821 -0.637,-18.315C1.704,-16.809 3.408,-14.687 4.476,-11.95L0,-11.95Z" style="fill-rule:nonzero;"/>
                    </g>
                    <g transform="matrix(0.861851,0,0,1.643697,8381.010864,1715.844083)">
                        <path d="M0,-22.505L0,-12.937L10.431,-12.937L10.431,-9.857L0,-9.857L0,0L11.663,0L11.663,3.08L-3.737,3.08L-3.737,-25.585L11.663,-25.585L11.663,-22.505L0,-22.505Z" style="fill-rule:nonzero;"/>
                    </g>
                    <g transform="matrix(0.861851,0,0,1.643697,8422.81064,1673.790099)">
                        <path d="M0,28.665L-3.737,28.665L-18.768,5.873L-18.768,28.665L-22.505,28.665L-22.505,0L-18.768,0L-3.737,22.751L-3.737,0L0,0L0,28.665Z" style="fill-rule:nonzero;"/>
                    </g>
                    <g transform="matrix(0.861851,0,0,1.643697,8436.188723,1709.59935)">
                        <path d="M0,-14.989C1.259,-17.22 2.978,-18.966 5.154,-20.225C7.33,-21.484 9.746,-22.114 12.402,-22.114C15.523,-22.114 18.247,-21.361 20.574,-19.855C22.901,-18.349 24.6,-16.214 25.667,-13.449L21.19,-13.449C20.396,-15.174 19.253,-16.502 17.762,-17.432C16.269,-18.363 14.482,-18.829 12.402,-18.829C10.403,-18.829 8.61,-18.363 7.022,-17.432C5.435,-16.502 4.188,-15.18 3.285,-13.469C2.382,-11.759 1.93,-9.753 1.93,-7.453C1.93,-5.18 2.382,-3.189 3.285,-1.478C4.188,0.234 5.435,1.555 7.022,2.485C8.61,3.416 10.403,3.881 12.402,3.881C14.482,3.881 16.269,3.423 17.762,2.505C19.253,1.588 20.396,0.268 21.19,-1.458L25.667,-1.458C24.6,1.281 22.901,3.396 20.574,4.887C18.247,6.38 15.523,7.125 12.402,7.125C9.746,7.125 7.33,6.503 5.154,5.257C2.978,4.012 1.259,2.28 0,0.062C-1.26,-2.156 -1.889,-4.661 -1.889,-7.453C-1.889,-10.246 -1.26,-12.758 0,-14.989" style="fill-rule:nonzero;"/>
                    </g>
                    <g transform="matrix(-0.861851,0,0,1.643697,9439.401189,1113.702036)">
                        <rect x="1120.407" y="340.79" width="3.737" height="28.624"/>
                    </g>
                    <g transform="matrix(0.861851,0,0,1.643697,8500.392403,1689.583889)">
                        <path d="M0,9.652L-5.175,-4.804L-10.35,9.652L0,9.652ZM1.067,12.691L-11.417,12.691L-13.717,19.056L-17.659,19.056L-7.311,-9.404L-2.998,-9.404L7.31,19.056L3.367,19.056L1.067,12.691Z" style="fill-rule:nonzero;"/>
                    </g>
                    <g transform="matrix(0.861851,0,0,1.643697,8326.433974,1752.687219)">
                        <path d="M0,16.59C1.943,14.633 2.915,11.888 2.915,8.357C2.915,4.798 1.937,2.019 -0.021,0.02C-1.979,-1.978 -4.792,-2.978 -8.46,-2.978L-13.635,-2.978L-13.635,19.527L-8.46,19.527C-4.764,19.527 -1.944,18.548 0,16.59M-0.35,-4.272C1.937,-3.108 3.688,-1.444 4.907,0.718C6.125,2.881 6.734,5.427 6.734,8.357C6.734,11.286 6.125,13.825 4.907,15.974C3.688,18.124 1.937,19.767 -0.35,20.902C-2.636,22.038 -5.339,22.607 -8.46,22.607L-17.372,22.607L-17.372,-6.017L-8.46,-6.017C-5.339,-6.017 -2.636,-5.435 -0.35,-4.272" style="fill-rule:nonzero;"/>
                    </g>
                    <g transform="matrix(0.861851,0,0,1.643697,8347.173988,1784.78303)">
                        <path d="M0,-22.505L0,-12.937L10.432,-12.937L10.432,-9.857L0,-9.857L0,0L11.663,0L11.663,3.08L-3.737,3.08L-3.737,-25.585L11.663,-25.585L11.663,-22.505L0,-22.505Z" style="fill-rule:nonzero;"/>
                    </g>
                    <g transform="matrix(0.861851,0,0,1.643697,8406.882426,1789.845452)">
                        <path d="M0,-28.624L-10.801,0L-15.112,0L-25.913,-28.624L-21.93,-28.624L-12.936,-3.942L-3.942,-28.624L0,-28.624Z" style="fill-rule:nonzero;"/>
                    </g>
                    <g transform="matrix(-0.861851,0,0,1.643697,9334.067477,1251.578616)">
                        <rect x="1059.298" y="298.849" width="3.737" height="28.624"/>
                    </g>
                    <g transform="matrix(0.861851,0,0,1.643697,8447.726065,1758.522836)">
                        <path d="M0,9.652L-5.174,-4.804L-10.349,9.652L0,9.652ZM1.068,12.691L-11.416,12.691L-13.716,19.056L-17.659,19.056L-7.31,-9.404L-2.998,-9.404L7.311,19.056L3.368,19.056L1.068,12.691Z" style="fill-rule:nonzero;"/>
                    </g>
                    <g transform="matrix(0.861851,0,0,1.643697,8477.810872,1790.317193)">
                        <path d="M0,-28.911L0,-7.762C0,-5.406 -0.726,-3.524 -2.177,-2.114C-3.628,-0.704 -5.544,0 -7.926,0C-10.336,0 -12.266,-0.719 -13.717,-2.155C-15.168,-3.593 -15.894,-5.557 -15.894,-8.049L-12.156,-8.049C-12.129,-6.652 -11.766,-5.516 -11.067,-4.64C-10.369,-3.764 -9.322,-3.326 -7.926,-3.326C-6.53,-3.326 -5.489,-3.743 -4.805,-4.579C-4.121,-5.413 -3.778,-6.474 -3.778,-7.762L-3.778,-28.911L0,-28.911Z" style="fill-rule:nonzero;"/>
                    </g>
                    <g transform="matrix(0.861851,0,0,1.643697,8494.835791,1784.78303)">
                        <path d="M0,-22.505L0,-12.937L10.431,-12.937L10.431,-9.857L0,-9.857L0,0L11.663,0L11.663,3.08L-3.737,3.08L-3.737,-25.585L11.663,-25.585L11.663,-22.505L0,-22.505Z" style="fill-rule:nonzero;"/>
                    </g>
                    <g transform="matrix(0.861851,0,0,1.643697,8520.689685,1743.843801)">
                        <path d="M0,27.268C-1.492,26.597 -2.662,25.666 -3.511,24.475C-4.359,23.285 -4.798,21.909 -4.825,20.348L-0.842,20.348C-0.705,21.69 -0.15,22.82 0.822,23.737C1.793,24.654 3.21,25.112 5.072,25.112C6.852,25.112 8.255,24.667 9.281,23.778C10.309,22.888 10.821,21.745 10.821,20.348C10.821,19.253 10.521,18.364 9.918,17.679C9.315,16.995 8.563,16.474 7.659,16.119C6.756,15.763 5.537,15.379 4.005,14.968C2.115,14.476 0.603,13.983 -0.533,13.49C-1.67,12.997 -2.642,12.224 -3.449,11.169C-4.257,10.116 -4.661,8.7 -4.661,6.919C-4.661,5.359 -4.264,3.977 -3.47,2.772C-2.676,1.567 -1.561,0.636 -0.123,-0.021C1.314,-0.678 2.964,-1.006 4.826,-1.006C7.509,-1.006 9.706,-0.336 11.417,1.005C13.128,2.347 14.093,4.126 14.313,6.344L10.206,6.344C10.068,5.249 9.493,4.285 8.48,3.449C7.468,2.615 6.126,2.197 4.456,2.197C2.896,2.197 1.623,2.601 0.637,3.408C-0.349,4.216 -0.842,5.345 -0.842,6.796C-0.842,7.837 -0.548,8.685 0.042,9.342C0.63,9.999 1.355,10.499 2.218,10.841C3.08,11.184 4.292,11.574 5.853,12.011C7.741,12.532 9.261,13.045 10.411,13.551C11.561,14.059 12.547,14.839 13.368,15.892C14.189,16.947 14.6,18.377 14.6,20.184C14.6,21.581 14.23,22.894 13.491,24.126C12.752,25.359 11.656,26.358 10.206,27.124C8.754,27.891 7.044,28.274 5.072,28.274C3.184,28.274 1.492,27.939 0,27.268" style="fill-rule:nonzero;"/>
                    </g>
                    <g transform="matrix(0.861851,0,0,1.643697,8325.124391,1689.583889)">
                        <path d="M0,9.652L-5.175,-4.804L-10.35,9.652L0,9.652ZM1.067,12.691L-11.417,12.691L-13.717,19.056L-17.659,19.056L-7.311,-9.404L-2.998,-9.404L7.31,19.056L3.367,19.056L1.067,12.691Z" style="fill:rgb(174,72,4);"/>
                    </g>
                    <g transform="matrix(0.861851,0,0,1.643697,8361.473649,1707.135448)">
                        <path d="M0,-11.95C-0.795,-13.62 -1.944,-14.913 -3.45,-15.831C-4.956,-16.748 -6.708,-17.207 -8.707,-17.207C-10.705,-17.207 -12.505,-16.748 -14.106,-15.831C-15.709,-14.913 -16.968,-13.599 -17.885,-11.888C-18.803,-10.178 -19.261,-8.199 -19.261,-5.954C-19.261,-3.709 -18.803,-1.738 -17.885,-0.041C-16.968,1.657 -15.709,2.964 -14.106,3.881C-12.505,4.799 -10.705,5.257 -8.707,5.257C-5.914,5.257 -3.614,4.422 -1.808,2.752C0,1.082 1.054,-1.177 1.354,-4.024L-10.062,-4.024L-10.062,-7.063L5.339,-7.063L5.339,-4.188C5.119,-1.834 4.38,0.322 3.121,2.279C1.861,4.237 0.205,5.784 -1.849,6.92C-3.901,8.057 -6.187,8.624 -8.707,8.624C-11.362,8.624 -13.785,8.002 -15.976,6.756C-18.166,5.511 -19.897,3.779 -21.171,1.561C-22.443,-0.657 -23.08,-3.162 -23.08,-5.954C-23.08,-8.747 -22.443,-11.259 -21.171,-13.49C-19.897,-15.721 -18.166,-17.46 -15.976,-18.706C-13.785,-19.951 -11.362,-20.574 -8.707,-20.574C-5.668,-20.574 -2.978,-19.821 -0.637,-18.315C1.704,-16.809 3.408,-14.687 4.476,-11.95L0,-11.95Z" style="fill:rgb(174,72,4);"/>
                    </g>
                    <g transform="matrix(0.861851,0,0,1.643697,8381.010864,1715.844083)">
                        <path d="M0,-22.505L0,-12.937L10.431,-12.937L10.431,-9.857L0,-9.857L0,0L11.663,0L11.663,3.08L-3.737,3.08L-3.737,-25.585L11.663,-25.585L11.663,-22.505L0,-22.505Z" style="fill:rgb(174,72,4);"/>
                    </g>
                    <g transform="matrix(0.861851,0,0,1.643697,8422.81064,1673.790099)">
                        <path d="M0,28.665L-3.737,28.665L-18.768,5.873L-18.768,28.665L-22.505,28.665L-22.505,0L-18.768,0L-3.737,22.751L-3.737,0L0,0L0,28.665Z" style="fill:rgb(174,72,4);"/>
                    </g>
                    <g transform="matrix(0.861851,0,0,1.643697,8436.188723,1709.59935)">
                        <path d="M0,-14.989C1.259,-17.22 2.978,-18.966 5.154,-20.225C7.33,-21.484 9.746,-22.114 12.402,-22.114C15.523,-22.114 18.247,-21.361 20.574,-19.855C22.901,-18.349 24.6,-16.214 25.667,-13.449L21.19,-13.449C20.396,-15.174 19.253,-16.502 17.762,-17.432C16.269,-18.363 14.482,-18.829 12.402,-18.829C10.403,-18.829 8.61,-18.363 7.022,-17.432C5.435,-16.502 4.188,-15.18 3.285,-13.469C2.382,-11.759 1.93,-9.753 1.93,-7.453C1.93,-5.18 2.382,-3.189 3.285,-1.478C4.188,0.234 5.435,1.555 7.022,2.485C8.61,3.416 10.403,3.881 12.402,3.881C14.482,3.881 16.269,3.423 17.762,2.505C19.253,1.588 20.396,0.268 21.19,-1.458L25.667,-1.458C24.6,1.281 22.901,3.396 20.574,4.887C18.247,6.38 15.523,7.125 12.402,7.125C9.746,7.125 7.33,6.503 5.154,5.257C2.978,4.012 1.259,2.28 0,0.062C-1.26,-2.156 -1.889,-4.661 -1.889,-7.453C-1.889,-10.246 -1.26,-12.758 0,-14.989" style="fill:rgb(174,72,4);"/>
                    </g>
                    <g transform="matrix(-0.861851,0,0,1.643697,9439.401189,1113.702036)">
                        <rect x="1120.407" y="340.79" width="3.737" height="28.624" style="fill:rgb(174,72,4);"/>
                    </g>
                    <g transform="matrix(0.861851,0,0,1.643697,8500.392403,1689.583889)">
                        <path d="M0,9.652L-5.175,-4.804L-10.35,9.652L0,9.652ZM1.067,12.691L-11.417,12.691L-13.717,19.056L-17.659,19.056L-7.311,-9.404L-2.998,-9.404L7.31,19.056L3.367,19.056L1.067,12.691Z" style="fill:rgb(174,72,4);"/>
                    </g>
                    <g transform="matrix(0.861851,0,0,1.643697,8326.433974,1752.687219)">
                        <path d="M0,16.59C1.943,14.633 2.915,11.888 2.915,8.357C2.915,4.798 1.937,2.019 -0.021,0.02C-1.979,-1.978 -4.792,-2.978 -8.46,-2.978L-13.635,-2.978L-13.635,19.527L-8.46,19.527C-4.764,19.527 -1.944,18.548 0,16.59M-0.35,-4.272C1.937,-3.108 3.688,-1.444 4.907,0.718C6.125,2.881 6.734,5.427 6.734,8.357C6.734,11.286 6.125,13.825 4.907,15.974C3.688,18.124 1.937,19.767 -0.35,20.902C-2.636,22.038 -5.339,22.607 -8.46,22.607L-17.372,22.607L-17.372,-6.017L-8.46,-6.017C-5.339,-6.017 -2.636,-5.435 -0.35,-4.272" style="fill:rgb(174,72,4);"/>
                    </g>
                    <g transform="matrix(0.861851,0,0,1.643697,8347.173988,1784.78303)">
                        <path d="M0,-22.505L0,-12.937L10.432,-12.937L10.432,-9.857L0,-9.857L0,0L11.663,0L11.663,3.08L-3.737,3.08L-3.737,-25.585L11.663,-25.585L11.663,-22.505L0,-22.505Z" style="fill:rgb(174,72,4);"/>
                    </g>
                    <g transform="matrix(0.861851,0,0,1.643697,8406.882426,1789.845452)">
                        <path d="M0,-28.624L-10.801,0L-15.112,0L-25.913,-28.624L-21.93,-28.624L-12.936,-3.942L-3.942,-28.624L0,-28.624Z" style="fill:rgb(174,72,4);"/>
                    </g>
                    <g transform="matrix(-0.861851,0,0,1.643697,9334.067477,1251.578616)">
                        <rect x="1059.298" y="298.849" width="3.737" height="28.624" style="fill:rgb(174,72,4);"/>
                    </g>
                    <g transform="matrix(0.861851,0,0,1.643697,8447.726065,1758.522836)">
                        <path d="M0,9.652L-5.174,-4.804L-10.349,9.652L0,9.652ZM1.068,12.691L-11.416,12.691L-13.716,19.056L-17.659,19.056L-7.31,-9.404L-2.998,-9.404L7.311,19.056L3.368,19.056L1.068,12.691Z" style="fill:rgb(174,72,4);"/>
                    </g>
                    <g transform="matrix(0.861851,0,0,1.643697,8477.810872,1790.317193)">
                        <path d="M0,-28.911L0,-7.762C0,-5.406 -0.726,-3.524 -2.177,-2.114C-3.628,-0.704 -5.544,0 -7.926,0C-10.336,0 -12.266,-0.719 -13.717,-2.155C-15.168,-3.593 -15.894,-5.557 -15.894,-8.049L-12.156,-8.049C-12.129,-6.652 -11.766,-5.516 -11.067,-4.64C-10.369,-3.764 -9.322,-3.326 -7.926,-3.326C-6.53,-3.326 -5.489,-3.743 -4.805,-4.579C-4.121,-5.413 -3.778,-6.474 -3.778,-7.762L-3.778,-28.911L0,-28.911Z" style="fill:rgb(174,72,4);"/>
                    </g>
                    <g transform="matrix(0.861851,0,0,1.643697,8494.835791,1784.78303)">
                        <path d="M0,-22.505L0,-12.937L10.431,-12.937L10.431,-9.857L0,-9.857L0,0L11.663,0L11.663,3.08L-3.737,3.08L-3.737,-25.585L11.663,-25.585L11.663,-22.505L0,-22.505Z" style="fill:rgb(174,72,4);"/>
                    </g>
                    <g transform="matrix(0.861851,0,0,1.643697,8520.689685,1743.843801)">
                        <path d="M0,27.268C-1.492,26.597 -2.662,25.666 -3.511,24.475C-4.359,23.285 -4.798,21.909 -4.825,20.348L-0.842,20.348C-0.705,21.69 -0.15,22.82 0.822,23.737C1.793,24.654 3.21,25.112 5.072,25.112C6.852,25.112 8.255,24.667 9.281,23.778C10.309,22.888 10.821,21.745 10.821,20.348C10.821,19.253 10.521,18.364 9.918,17.679C9.315,16.995 8.563,16.474 7.659,16.119C6.756,15.763 5.537,15.379 4.005,14.968C2.115,14.476 0.603,13.983 -0.533,13.49C-1.67,12.997 -2.642,12.224 -3.449,11.169C-4.257,10.116 -4.661,8.7 -4.661,6.919C-4.661,5.359 -4.264,3.977 -3.47,2.772C-2.676,1.567 -1.561,0.636 -0.123,-0.021C1.314,-0.678 2.964,-1.006 4.826,-1.006C7.509,-1.006 9.706,-0.336 11.417,1.005C13.128,2.347 14.093,4.126 14.313,6.344L10.206,6.344C10.068,5.249 9.493,4.285 8.48,3.449C7.468,2.615 6.126,2.197 4.456,2.197C2.896,2.197 1.623,2.601 0.637,3.408C-0.349,4.216 -0.842,5.345 -0.842,6.796C-0.842,7.837 -0.548,8.685 0.042,9.342C0.63,9.999 1.355,10.499 2.218,10.841C3.08,11.184 4.292,11.574 5.853,12.011C7.741,12.532 9.261,13.045 10.411,13.551C11.561,14.059 12.547,14.839 13.368,15.892C14.189,16.947 14.6,18.377 14.6,20.184C14.6,21.581 14.23,22.894 13.491,24.126C12.752,25.359 11.656,26.358 10.206,27.124C8.754,27.891 7.044,28.274 5.072,28.274C3.184,28.274 1.492,27.939 0,27.268" style="fill:rgb(174,72,4);"/>
                    </g>
                </g>
            </g>
        </g>
    </g>
</svg>
